<svg width="64" height="71" viewBox="0 0 64 71" fill="none" xmlns="http://www.w3.org/2000/svg">
<path d="M0 59.6793V10.8017C0 4.83608 4.83608 0 10.8017 0C16.7673 0 21.6034 4.83609 21.6034 10.8017V16.4726C21.6034 22.4382 26.4395 27.2743 32.4051 27.2743H41.3165C42.3604 27.2743 43.2067 26.4279 43.2067 25.384C43.2067 24.34 44.0531 23.4937 45.097 23.4937H53.4684C59.1357 23.4937 63.73 28.088 63.73 33.7553V59.2743C63.73 65.4636 58.7125 70.481 52.5232 70.481H52.1181C46.1525 70.481 41.3165 65.6449 41.3165 59.6793V58.7342C41.3165 53.2906 36.9035 48.8776 31.4599 48.8776C26.0163 48.8776 21.6034 53.2906 21.6034 58.7342V59.6793C21.6034 65.6449 16.7673 70.481 10.8017 70.481C4.83608 70.481 0 65.6449 0 59.6793Z" fill="#D04FE5"/>
<circle cx="53.7384" cy="10.2616" r="10.2616" fill="#D04FE5"/>
</svg>
